<?xml version="1.0" standalone="no"?>
<!DOCTYPE svg PUBLIC "-//W3C//DTD SVG 20010904//EN"
 "http://www.w3.org/TR/2001/REC-SVG-20010904/DTD/svg10.dtd">
<svg version="1.0" xmlns="http://www.w3.org/2000/svg"
 width="744.000000pt" height="1052.000000pt" viewBox="0 0 744.000000 1052.000000"
 preserveAspectRatio="xMidYMid meet">

<g transform="translate(0.000000,1052.000000) scale(0.100000,-0.100000)"
fill="#000000" stroke="none">
<path d="M1224 7315 c-3 -8 8 -51 25 -96 17 -45 30 -83 29 -84 -2 -1 -23 -7
-48 -14 -51 -15 -147 -70 -175 -101 -37 -40 -75 -24 -140 60 -75 97 -86 105
-105 71 -12 -24 39 -152 87 -218 16 -23 36 -56 43 -72 11 -28 10 -33 -16 -65
-16 -19 -48 -44 -71 -55 -48 -24 -59 -39 -74 -110 -6 -28 -20 -64 -32 -81 -12
-16 -54 -74 -93 -128 -39 -54 -82 -118 -94 -142 -13 -25 -58 -84 -101 -131
-71 -77 -79 -91 -79 -126 0 -93 68 -201 150 -238 37 -17 46 -17 83 -6 62 19
140 24 195 12 57 -12 152 -1 259 31 l73 21 87 -40 c94 -44 178 -66 311 -82 97
-12 153 -44 203 -117 55 -81 180 -325 260 -509 46 -105 93 -197 113 -221 42
-49 123 -104 191 -129 28 -10 54 -21 58 -25 4 -4 -44 -55 -108 -113 -140 -130
-171 -164 -224 -246 -51 -79 -58 -115 -37 -179 24 -71 78 -143 190 -252 54
-52 127 -131 163 -175 135 -167 360 -375 407 -375 6 0 17 -14 25 -31 22 -51
91 -116 136 -128 47 -13 95 -14 95 -3 0 20 -99 344 -109 356 -6 7 -36 18 -67
25 -50 12 -55 15 -49 34 26 88 15 113 -57 136 -45 15 -158 100 -191 143 -88
118 -139 248 -123 312 15 62 100 118 316 211 134 57 262 154 305 230 9 15 18
2 56 -81 25 -55 82 -151 126 -214 162 -232 342 -553 393 -700 13 -38 23 -92
24 -131 1 -65 1 -66 -49 -124 -27 -32 -68 -69 -90 -83 -45 -27 -79 -71 -89
-114 l-6 -28 185 0 185 0 21 33 c20 33 22 101 4 170 -7 26 -6 27 28 27 74 0
74 32 -8 320 -56 195 -85 311 -131 514 -31 143 -99 356 -135 430 -16 32 -28
60 -26 62 2 2 113 4 247 5 210 1 262 -2 360 -20 284 -52 501 -49 814 13 l164
32 38 -29 c22 -16 57 -38 79 -49 22 -11 41 -21 43 -23 1 -1 -5 -39 -14 -85 -8
-46 -13 -94 -9 -107 8 -34 46 -49 84 -34 24 10 34 27 58 89 l29 77 39 -2 c21
-2 39 -4 41 -5 1 -2 -3 -42 -9 -90 -10 -80 -9 -89 8 -108 21 -23 72 -27 98 -8
10 8 23 45 33 93 9 44 19 83 23 88 4 4 22 4 39 1 l32 -6 0 -98 c0 -171 -19
-225 -170 -496 -98 -176 -124 -207 -281 -340 -156 -130 -189 -165 -224 -234
-15 -30 -37 -56 -55 -65 -47 -24 -100 -75 -121 -117 l-20 -38 187 2 186 3 54
99 c30 55 56 102 58 104 3 2 19 -7 36 -20 l32 -23 54 59 c30 32 83 110 120
173 97 167 127 200 303 332 88 66 162 124 165 129 3 5 24 87 46 182 40 173 77
275 110 305 17 15 21 12 64 -53 25 -38 86 -113 136 -167 128 -137 180 -247
225 -471 15 -76 25 -160 25 -212 0 -80 -3 -91 -30 -132 -17 -25 -30 -58 -30
-75 0 -24 -12 -42 -50 -80 -47 -46 -70 -91 -70 -137 0 -17 15 -18 179 -18
l179 0 17 26 c33 50 36 83 14 134 -28 66 -23 100 18 114 65 22 64 0 8 311 -63
354 -64 369 -22 665 l23 164 22 -129 c12 -72 22 -144 22 -161 0 -52 59 -80
105 -50 l25 17 -4 247 c-4 247 -4 247 -33 307 -33 71 -33 67 -15 705 12 425 5
689 -23 795 -8 33 -34 98 -57 145 -33 67 -58 102 -122 165 -133 132 -243 193
-445 245 -109 29 -370 32 -506 7 -103 -19 -334 -42 -580 -57 -142 -9 -367 -28
-760 -66 -33 -3 -98 -1 -145 6 -47 6 -197 15 -335 20 -156 6 -324 18 -445 34
-107 14 -249 30 -315 35 -184 16 -492 13 -661 -6 -178 -20 -518 -22 -614 -4
-99 18 -257 69 -338 107 -65 32 -72 38 -65 57 4 12 7 35 8 52 0 32 15 24 -205
109 -33 13 -59 35 -98 82 -55 66 -69 75 -78 49z m5631 -1535 c20 -124 29 -230
36 -430 5 -146 11 -273 13 -282 2 -10 0 -91 -6 -180 -5 -90 -9 -180 -9 -201 1
-21 -3 -46 -8 -55 -8 -14 -10 -14 -11 -2 0 8 -11 35 -24 60 -36 69 -76 194
-84 263 -4 34 -4 114 -1 177 6 111 11 170 49 570 9 102 16 203 14 225 -7 77 6
19 31 -145z"/>
</g>
</svg>
